# xmcd CD database file
#
# Track frame offsets:
#	150
#	32539
#	59274
#	85128
#	126720
#	148054
#	190139
#
# Disc length: 3032 seconds
#
# Revision: 3
# Processed by: cddbd v1.5.2PL0 Copyright (c) Steve Scherf et al.
# Submitted via: CDex 1.51
#
DISCID=620bd607
DTITLE=Anawaty/Russell - Monjour
DYEAR=2009
DGENRE=New Age
TTITLE0=Monjour
TTITLE1=Rainy Day Diva
TTITLE2=Syrian Siren Song
TTITLE3=Blue Year's Day (and Night)
TTITLE4=Sunset Over Manda Valley
TTITLE5=A Minor Grand Funk Opera
TTITLE6=The Enigmatic Smile Upon Her Lips of Beauty
EXTD=YEAR: 2009
EXTT0=
EXTT1=
EXTT2=
EXTT3=
EXTT4=
EXTT5=
EXTT6=
PLAYORDER=
